<svg width="346" height="189" viewBox="0 0 346 189" fill="none" xmlns="http://www.w3.org/2000/svg">
<g clip-path="url(#clip0_1_3777)">
<path d="M302 158.5C302 124.154 288.409 91.2156 264.217 66.9297C240.025 42.6437 207.213 29 173 29C138.787 29 105.975 42.6437 81.7832 66.9297C57.591 91.2156 44 124.154 44 158.5H82.7C82.7 134.458 92.2137 111.401 109.148 94.4008C126.083 77.4006 149.051 67.85 173 67.85C196.949 67.85 219.917 77.4006 236.852 94.4008C253.786 111.401 263.3 134.458 263.3 158.5H302Z" fill="#FF0096"/>
<path d="M302 158.5C302 150.479 301.258 142.475 299.783 134.592L261.748 141.764C262.78 147.283 263.3 152.885 263.3 158.5H302Z" fill="#BFBFBF"/>
</g>
<defs>
<clipPath id="clip0_1_3777">
<rect width="346" height="189" fill="white"/>
</clipPath>
</defs>
</svg>
